<svg id="Layer_1" data-name="Layer 1" xmlns="http://www.w3.org/2000/svg" xmlns:xlink="http://www.w3.org/1999/xlink" viewBox="0 0 2000 2000"><defs><style>.cls-1{fill:url(#linear-gradient);}.cls-2{fill:url(#linear-gradient-2);}.cls-3{fill:url(#linear-gradient-3);}</style><linearGradient id="linear-gradient" x1="732.61" y1="953.71" x2="1098.17" y2="953.71" gradientUnits="userSpaceOnUse"><stop offset="0" stop-color="#8fd3f4" stop-opacity="0"/><stop offset="1" stop-color="#1de9b6"/></linearGradient><linearGradient id="linear-gradient-2" x1="732.61" y1="1101.62" x2="1098.17" y2="1101.62" xlink:href="#linear-gradient"/><linearGradient id="linear-gradient-3" x1="624.65" y1="993" x2="1319.9" y2="993" gradientUnits="userSpaceOnUse"><stop offset="0" stop-color="#8fd3f4"/><stop offset="1" stop-color="#1de9b6"/></linearGradient></defs><title>Exemplum</title><path class="cls-1" d="M842.94,854.78v49.47h185.51l24.73-49.47Zm0,74.2v49.47h185.51L1053.18,929Zm162,123.17v.5h23.46l.24-.5Z"/><polygon class="cls-2" points="1153.38 1052.15 1091.41 1114.14 1017.36 1113.98 1079.19 1052.15 1004.99 1052.15 1004.99 1200.55 955.52 1200.55 955.52 1052.65 842.94 1052.65 842.94 1003.18 955.52 1003.18 955.52 1002.68 1128.66 1002.68 1153.38 1052.15"/><polygon class="cls-3" points="972.28 1330.72 977.23 1325.76 644.46 993 972.28 665.19 1300.09 993 967.32 1325.76 972.28 1330.72 977.23 1325.76 972.28 1330.72 977.23 1335.67 1319.9 993 972.27 645.38 624.65 993 972.28 1340.62 977.23 1335.67 972.28 1330.72"/></svg>