<?xml version="1.0" encoding="utf-8"?>
<!-- Generator: Adobe Illustrator 25.2.1, SVG Export Plug-In . SVG Version: 6.00 Build 0)  -->
<svg version="1.1" id="Layer_1" xmlns="http://www.w3.org/2000/svg" xmlns:xlink="http://www.w3.org/1999/xlink" x="0px" y="0px"
	 viewBox="0 0 2000 2000" xml:space="preserve">
<style type="text/css">
	.st0{fill:#0A0021;}
	.st1{fill:url(#SVGID_1_);}
	.st2{fill:url(#SVGID_2_);}
	.st3{fill:url(#SVGID_3_);}
	.st4{fill:url(#SVGID_4_);}
	.st5{fill:url(#SVGID_5_);}
</style>
<g>
	<g>
		<g>
			<linearGradient id="SVGID_1_" gradientUnits="userSpaceOnUse" x1="732.6078" y1="953.714" x2="1098.165" y2="953.714">
				<stop  offset="0" style="stop-color:#8FD3F4;stop-opacity:0"/>
				<stop  offset="1" style="stop-color:#1DE9B6"/>
			</linearGradient>
			<path class="st1" d="M842.94,854.78v49.47h185.51l24.73-49.47H842.94z M842.94,928.98v49.47h185.51l24.73-49.47H842.94z
				 M1004.99,1052.15v0.49h23.46l0.24-0.49H1004.99z"/>
			<linearGradient id="SVGID_2_" gradientUnits="userSpaceOnUse" x1="732.6078" y1="1101.6161" x2="1098.165" y2="1101.6161">
				<stop  offset="0" style="stop-color:#8FD3F4;stop-opacity:0"/>
				<stop  offset="1" style="stop-color:#1DE9B6"/>
			</linearGradient>
			<polygon class="st2" points="1153.38,1052.15 1091.41,1114.14 1017.36,1113.98 1079.19,1052.15 1004.99,1052.15 1004.99,1200.55 
				955.52,1200.55 955.52,1052.65 842.94,1052.65 842.94,1003.18 955.52,1003.18 955.52,1002.68 1128.66,1002.68 			"/>
		</g>
	</g>
</g>
<g>
	<linearGradient id="SVGID_3_" gradientUnits="userSpaceOnUse" x1="624.6549" y1="993.0001" x2="1319.8966" y2="993.0001">
		<stop  offset="0" style="stop-color:#8FD3F4"/>
		<stop  offset="1" style="stop-color:#1DE9B6"/>
	</linearGradient>
	<polygon class="st3" points="972.28,1330.72 977.23,1325.76 644.46,993 972.28,665.19 1300.09,993 967.32,1325.76 972.28,1330.72 
		977.23,1325.76 972.28,1330.72 977.23,1335.67 1319.9,993 972.28,645.38 624.65,993 972.28,1340.62 977.23,1335.67 	"/>
</g>
</svg>
