<svg viewBox="0 0 715 715" xmlns="http://www.w3.org/2000/svg" class="exemplum-svg" >
    <defs>
        <linearGradient y2="0.50002" x2="1.21397" y1="0.50002" x1="-0.52479" id="SVGID_1_">
            <stop stop-color="#8FD3F4" stop-opacity="0" offset="0"/>
            <stop stop-color="#1DE9B6" offset="1"/>
        </linearGradient>
        <linearGradient y2="0.50001" x2="0.82214" y1="0.50001" x1="-0.35541" id="SVGID_2_">
            <stop stop-color="#8FD3F4" stop-opacity="0" offset="0"/>
            <stop stop-color="#1DE9B6" offset="1"/>
        </linearGradient>
        <linearGradient y2="0.5" x2="1" y1="0.5" x1="0.00001" id="SVGID_3_">
            <stop stop-color="#8FD3F4" offset="0"/>
            <stop stop-color="#1DE9B6" offset="1"/>
        </linearGradient>
    </defs>
    <g>
        <title>Layer 1</title>
        <g id="svg_1">
            <g id="svg_2">
                <g id="svg_3">
                    <path id="svg_4" fill="url(#SVGID_1_)" d="m228.94,217.78l0,49.47l185.51,0l24.73,-49.47l-210.24,0zm0,74.2l0,49.47l185.51,0l24.73,-49.47l-210.24,0zm162.05,123.17l0,0.49l23.46,0l0.24,-0.49l-23.7,0z" class="st1"/>
                    <polygon id="svg_5" fill="url(#SVGID_2_)" points="539.3800048828125,415.1500244140625 477.4100341796875,477.1400146484375 403.3599853515625,476.97998046875 465.18994140625,415.1500244140625 390.989990234375,415.1500244140625 390.989990234375,563.550048828125 341.52001953125,563.550048828125 341.52001953125,415.6500244140625 228.94000244140625,415.6500244140625 228.94000244140625,366.17999267578125 341.52001953125,366.17999267578125 341.52001953125,365.67999267578125 514.6600341796875,365.67999267578125 " class="st2"/>
                </g>
            </g>
        </g>
        <g id="svg_6">
            <polygon id="svg_7" fill="url(#SVGID_3_)" points="358.280029296875,693.719970703125 363.22998046875,688.760009765625 30.46002197265625,356 358.280029296875,28.19000244140625 686.0899658203125,356 353.32000732421875,688.760009765625 358.280029296875,693.719970703125 363.22998046875,688.760009765625 358.280029296875,693.719970703125 363.22998046875,698.6700439453125 705.9000244140625,356 358.280029296875,8.3800048828125 10.6500244140625,356 358.280029296875,703.6199951171875 363.22998046875,698.6700439453125 " class="st3"/>
        </g>
    </g>
</svg>